<svg width="640" height="640" viewBox="0 0 640 640" fill="none" xmlns="http://www.w3.org/2000/svg">
<rect width="640" height="640" fill="#282828"/>
<path fill-rule="evenodd" clip-rule="evenodd" d="M262.161 382.154C262.999 381.835 263.924 381.835 264.762 382.154L293.967 393.285C297.754 394.728 296.72 400.347 292.667 400.347H234.27C230.217 400.347 229.183 394.73 232.969 393.286L262.161 382.154Z" fill="#7C7C7C"/>
<path fill-rule="evenodd" clip-rule="evenodd" d="M321.862 250.714C332.731 237.164 323.084 217.061 305.715 217.061H220.86C203.491 217.061 193.844 237.164 204.713 250.714L228.46 280.318C229.485 281.595 231.034 282.339 232.672 282.339H233.827C238.358 282.339 240.874 277.094 238.039 273.56L213.84 243.392C209.188 237.593 213.179 229.033 220.509 228.767L220.86 228.76H305.715L306.066 228.767C313.28 229.029 317.259 237.324 312.95 243.114L312.735 243.392L288.537 273.56C285.702 277.094 288.218 282.339 292.749 282.339H293.903C295.541 282.339 297.09 281.595 298.115 280.318L321.862 250.714Z" fill="#474747"/>
<path fill-rule="evenodd" clip-rule="evenodd" d="M321.862 389.286C332.731 402.836 323.084 422.939 305.715 422.939H220.86C203.491 422.939 193.844 402.836 204.713 389.286L228.46 359.682C229.485 358.405 231.034 357.661 232.672 357.661H233.827C238.358 357.661 240.874 362.906 238.039 366.44L213.84 396.608C209.188 402.407 213.179 410.967 220.509 411.233L220.86 411.24H305.715L306.066 411.233C313.28 410.971 317.259 402.676 312.95 396.886L312.735 396.608L288.537 366.44C285.702 362.906 288.218 357.661 292.749 357.661H293.903C295.541 357.661 297.09 358.405 298.115 359.682L321.862 389.286Z" fill="#474747"/>
<path fill-rule="evenodd" clip-rule="evenodd" d="M259.967 282.293C261.594 284.323 264.683 284.323 266.31 282.293L289.451 253.418C291.202 251.233 288.734 247.881 286.045 248.662C271.455 252.898 253.876 253.041 233.639 240.572C233.043 240.204 232.331 240.07 231.643 240.205C229.576 240.608 228.548 243.086 229.865 244.73L259.967 282.293Z" fill="#7C7C7C"/>
<ellipse cx="263.583" cy="367.108" rx="6.3" ry="7.2" fill="#7C7C7C"/>
<path d="M440.986 394.578C439.605 394.546 438.337 394.289 437.18 393.807C436.056 393.293 435.141 392.731 434.434 392.121C433.727 391.511 433.213 390.965 432.892 390.483C432.282 389.551 432.057 388.7 432.218 387.929C432.378 387.126 432.764 386.5 433.374 386.05C434.016 385.601 434.755 385.456 435.59 385.617C436.425 385.777 437.212 386.227 437.951 386.966C438.337 387.351 438.85 387.72 439.493 388.074C440.167 388.395 440.746 388.572 441.227 388.604C442.159 388.636 442.833 388.475 443.251 388.122C443.668 387.769 443.877 387.303 443.877 386.725C443.877 386.114 443.636 385.649 443.155 385.328C442.673 385.006 441.934 384.669 440.938 384.316L440.36 384.123C438.208 383.32 436.538 382.485 435.349 381.618C434.193 380.718 433.39 379.771 432.94 378.775C432.523 377.779 432.33 376.607 432.362 375.258C432.362 373.909 432.732 372.688 433.47 371.596C434.241 370.472 435.285 369.605 436.602 368.994C437.951 368.352 439.477 368.031 441.179 368.031C442.785 368.031 444.343 368.4 445.853 369.139C447.362 369.846 448.422 370.841 449.033 372.126C449.322 372.704 449.402 373.379 449.273 374.15C449.177 374.888 448.824 375.451 448.214 375.836C447.507 376.286 446.736 376.462 445.901 376.366C445.098 376.27 444.359 375.852 443.685 375.113C443.492 374.921 443.299 374.728 443.106 374.535C442.817 374.278 442.48 374.085 442.095 373.957C441.741 373.828 441.372 373.764 440.986 373.764C440.312 373.764 439.734 373.957 439.252 374.342C438.802 374.728 438.593 375.226 438.626 375.836C438.626 376.221 438.77 376.591 439.059 376.944C439.348 377.265 439.766 377.57 440.312 377.86C440.858 378.149 441.549 378.438 442.384 378.727C444.118 379.305 445.548 379.963 446.672 380.702C447.796 381.409 448.647 382.292 449.225 383.352C449.836 384.38 450.141 385.617 450.141 387.062C450.141 388.411 449.771 389.664 449.033 390.82C448.326 391.976 447.282 392.908 445.901 393.615C444.52 394.289 442.882 394.61 440.986 394.578ZM462.069 394.578C461.074 394.578 460.271 394.289 459.66 393.711C459.082 393.133 458.793 392.362 458.793 391.398V361.334C458.793 360.37 459.082 359.599 459.66 359.021C460.271 358.443 461.074 358.154 462.069 358.154H461.925C462.921 358.154 463.708 358.443 464.286 359.021C464.896 359.599 465.201 360.37 465.201 361.334V391.398C465.201 392.362 464.896 393.133 464.286 393.711C463.708 394.289 462.921 394.578 461.925 394.578H462.069ZM456.866 373.812C456.095 373.812 455.469 373.572 454.987 373.09C454.537 372.608 454.312 371.998 454.312 371.259V371.163C454.312 370.392 454.537 369.781 454.987 369.332C455.469 368.85 456.095 368.609 456.866 368.609H467.128C467.899 368.609 468.51 368.85 468.959 369.332C469.441 369.781 469.682 370.392 469.682 371.163V371.259C469.682 371.998 469.441 372.608 468.959 373.09C468.51 373.572 467.899 373.812 467.128 373.812H456.866ZM497.994 392.025C497.994 393.052 497.56 393.775 496.693 394.193C495.826 394.61 494.959 394.642 494.091 394.289C493.224 393.936 492.791 393.309 492.791 392.41V388.989C491.923 390.692 490.735 392.057 489.225 393.085C487.748 394.08 486.109 394.578 484.311 394.578C482.094 394.578 480.28 394.096 478.866 393.133C477.485 392.137 476.473 390.804 475.831 389.134C475.189 387.464 474.867 385.488 474.867 383.208V371.452C474.867 370.038 475.397 369.059 476.457 368.513C477.549 367.934 478.625 367.934 479.685 368.513C480.778 369.059 481.324 370.038 481.324 371.452V383.449C481.324 385.119 481.773 386.436 482.673 387.399C483.572 388.331 484.744 388.797 486.19 388.797C487.121 388.797 487.989 388.523 488.792 387.977C489.627 387.431 490.285 386.693 490.767 385.761C491.281 384.83 491.538 383.802 491.538 382.678V371.403C491.538 370.022 492.068 369.059 493.128 368.513C494.22 367.967 495.296 367.967 496.356 368.513C497.448 369.059 497.994 370.038 497.994 371.452V392.025ZM529.357 394.578C528.618 394.578 528.008 394.337 527.526 393.855C527.044 393.374 526.804 392.747 526.804 391.976L526.852 382.003L525.647 376.173V361.43C525.647 360.434 525.936 359.647 526.514 359.069C527.093 358.459 527.864 358.154 528.827 358.154H528.875C529.839 358.154 530.61 358.459 531.188 359.069C531.766 359.647 532.055 360.434 532.055 361.43V391.976C532.055 392.747 531.814 393.374 531.333 393.855C530.883 394.337 530.273 394.578 529.502 394.578H529.357ZM516.83 394.337C514.293 394.337 512.06 393.775 510.133 392.651C508.238 391.527 506.777 389.985 505.749 388.026C504.721 386.034 504.207 383.802 504.207 381.329C504.207 378.823 504.721 376.591 505.749 374.631C506.809 372.64 508.286 371.082 510.181 369.958C512.109 368.834 514.341 368.272 516.878 368.272C519.416 368.272 521.632 368.914 523.527 370.199C525.422 371.484 526.868 373.138 527.864 375.161C528.891 377.153 529.405 379.209 529.405 381.329C529.405 383.288 528.907 385.279 527.912 387.303C526.948 389.327 525.503 391.013 523.575 392.362C521.68 393.679 519.432 394.337 516.83 394.337ZM517.505 388.845C518.95 388.845 520.251 388.523 521.407 387.881C522.564 387.239 523.463 386.355 524.105 385.231C524.78 384.075 525.117 382.774 525.117 381.329C525.117 379.851 524.796 378.55 524.154 377.426C523.511 376.27 522.612 375.37 521.456 374.728C520.299 374.085 518.982 373.764 517.505 373.764C516.027 373.764 514.71 374.085 513.554 374.728C512.43 375.338 511.546 376.221 510.904 377.378C510.262 378.534 509.94 379.851 509.94 381.329C509.94 382.774 510.262 384.075 510.904 385.231C511.546 386.355 512.446 387.239 513.602 387.881C514.758 388.523 516.059 388.845 517.505 388.845ZM542.987 394.578C542.023 394.578 541.252 394.289 540.674 393.711C540.096 393.101 539.807 392.298 539.807 391.302V371.307C539.807 370.311 540.096 369.524 540.674 368.946C541.252 368.336 542.023 368.031 542.987 368.031H543.035C543.999 368.031 544.77 368.336 545.348 368.946C545.926 369.524 546.215 370.311 546.215 371.307V391.302C546.215 392.298 545.926 393.101 545.348 393.711C544.77 394.289 543.999 394.578 543.035 394.578H542.987ZM543.035 363.261C542.071 363.261 541.252 362.924 540.578 362.249C539.903 361.542 539.566 360.707 539.566 359.744C539.566 359.166 539.711 358.62 540 358.106C540.321 357.592 540.738 357.19 541.252 356.901C541.798 356.58 542.393 356.419 543.035 356.419C543.645 356.419 544.207 356.58 544.721 356.901C545.235 357.19 545.653 357.592 545.974 358.106C546.295 358.62 546.456 359.166 546.456 359.744C546.456 360.386 546.295 360.98 545.974 361.526C545.653 362.04 545.235 362.458 544.721 362.779C544.207 363.1 543.645 363.261 543.035 363.261ZM565.918 394.578C563.349 394.578 561.02 394.016 558.932 392.892C556.876 391.736 555.27 390.146 554.114 388.122C552.958 386.098 552.379 383.834 552.379 381.329C552.379 378.791 552.958 376.511 554.114 374.487C555.27 372.463 556.876 370.889 558.932 369.765C561.02 368.609 563.349 368.031 565.918 368.031C568.488 368.031 570.8 368.609 572.856 369.765C574.944 370.889 576.566 372.463 577.722 374.487C578.911 376.511 579.505 378.791 579.505 381.329C579.505 383.834 578.911 386.098 577.722 388.122C576.566 390.146 574.944 391.736 572.856 392.892C570.8 394.016 568.488 394.578 565.918 394.578ZM565.918 388.845C567.364 388.845 568.664 388.523 569.821 387.881C570.977 387.239 571.876 386.355 572.519 385.231C573.193 384.075 573.531 382.774 573.531 381.329C573.531 379.851 573.209 378.534 572.567 377.378C571.925 376.221 571.025 375.338 569.869 374.728C568.713 374.085 567.396 373.764 565.918 373.764C564.441 373.764 563.124 374.085 561.967 374.728C560.843 375.338 559.96 376.221 559.317 377.378C558.675 378.534 558.354 379.851 558.354 381.329C558.354 382.774 558.675 384.075 559.317 385.231C559.96 386.355 560.843 387.239 561.967 387.881C563.124 388.523 564.441 388.845 565.918 388.845Z" fill="#474747"/>
<path d="M92.972 347.614C85.804 347.614 79.372 346.046 73.676 342.91C68.044 339.71 63.66 335.358 60.524 329.854C57.388 324.35 55.82 318.238 55.82 311.518C55.82 304.862 57.452 298.75 60.716 293.182C63.98 287.614 68.428 283.198 74.06 279.934C79.692 276.67 85.996 275.038 92.972 275.038C97.516 275.038 101.772 275.742 105.74 277.15C109.772 278.558 113.292 280.542 116.3 283.102C119.308 285.662 121.676 288.606 123.404 291.934C125.068 295.326 125.132 298.206 123.596 300.574C122.124 302.942 119.916 304.19 116.972 304.318C114.092 304.382 111.788 303.198 110.06 300.766C107.82 297.374 105.388 294.91 102.764 293.374C100.204 291.838 96.812 291.102 92.588 291.166C89.004 291.166 85.676 291.998 82.604 293.662C79.532 295.326 77.068 297.726 75.212 300.862C73.42 303.934 72.524 307.486 72.524 311.518C72.524 315.358 73.388 318.814 75.116 321.886C76.908 324.958 79.276 327.39 82.22 329.182C85.228 330.91 88.492 331.774 92.012 331.774C96.044 331.838 99.404 331.198 102.092 329.854C104.78 328.51 107.436 326.014 110.06 322.366C112.364 319.55 115.02 318.334 118.028 318.718C121.036 319.038 123.116 320.606 124.268 323.422C125.484 326.238 124.94 329.374 122.636 332.83C119.5 337.822 115.372 341.534 110.252 343.966C105.196 346.398 99.436 347.614 92.972 347.614ZM137.372 282.91C137.372 279.518 138.652 277.15 141.212 275.806C143.836 274.462 146.428 274.462 148.988 275.806C151.612 277.15 152.924 279.518 152.924 282.91V299.614C154.524 297.886 156.572 296.574 159.068 295.678C161.628 294.718 164.348 294.334 167.228 294.526C171.26 294.974 174.62 296.254 177.308 298.366C180.06 300.414 182.108 303.102 183.452 306.43C184.796 309.758 185.468 313.63 185.468 318.046V339.742C185.468 343.07 184.156 345.406 181.532 346.75C178.972 348.094 176.38 348.094 173.756 346.75C171.196 345.406 169.916 343.07 169.916 339.742V318.91C169.916 316.99 169.532 315.358 168.764 314.014C167.996 312.67 166.972 311.678 165.692 311.038C164.412 310.334 163.004 309.982 161.468 309.982C159.868 309.982 158.428 310.334 157.148 311.038C155.868 311.678 154.844 312.67 154.076 314.014C153.372 315.358 153.02 316.99 153.02 318.91V339.742C153.02 343.07 151.708 345.406 149.084 346.75C146.46 348.094 143.836 348.094 141.212 346.75C138.652 345.406 137.372 343.07 137.372 339.742V282.91ZM197.629 300.574C197.629 298.654 198.173 297.15 199.261 296.062C200.413 294.91 201.917 294.334 203.773 294.334H204.061C205.917 294.334 207.485 294.91 208.765 296.062C210.109 297.15 210.909 298.622 211.165 300.478L213.085 322.174V339.934C213.085 342.238 212.349 344.094 210.877 345.502C209.469 346.91 207.581 347.614 205.213 347.614H205.309C203.005 347.614 201.149 346.91 199.741 345.502C198.333 344.03 197.629 342.11 197.629 339.742V300.574ZM202.141 323.134C202.973 317.758 204.157 313.086 205.693 309.118C207.293 305.15 209.661 301.726 212.797 298.846C215.997 295.902 219.933 294.43 224.605 294.43C226.653 294.43 228.317 295.102 229.597 296.446C230.941 297.726 231.613 299.294 231.613 301.15C231.549 302.878 230.973 304.414 229.885 305.758C228.861 307.102 227.037 308.126 224.413 308.83C222.109 309.214 220.093 310.142 218.365 311.614C216.637 313.086 215.325 314.878 214.429 316.99C213.533 319.038 213.085 321.15 213.085 323.326V335.806H201.565L202.141 323.134ZM263.464 347.614C258.216 347.614 253.512 346.494 249.352 344.254C245.192 341.95 241.928 338.782 239.56 334.75C237.192 330.718 236.008 326.142 236.008 321.022C236.008 315.902 237.192 311.326 239.56 307.294C241.928 303.198 245.192 300.03 249.352 297.79C253.512 295.486 258.216 294.334 263.464 294.334C268.648 294.334 273.32 295.486 277.48 297.79C281.704 300.03 285 303.198 287.368 307.294C289.736 311.326 290.92 315.902 290.92 321.022C290.92 326.142 289.736 330.718 287.368 334.75C285 338.782 281.704 341.95 277.48 344.254C273.32 346.494 268.648 347.614 263.464 347.614ZM263.464 333.886C265.896 333.886 268.104 333.342 270.088 332.254C272.072 331.166 273.608 329.63 274.696 327.646C275.848 325.662 276.424 323.454 276.424 321.022C276.424 318.462 275.88 316.19 274.792 314.206C273.704 312.222 272.168 310.718 270.184 309.694C268.2 308.606 265.96 308.062 263.464 308.062C260.968 308.062 258.728 308.606 256.744 309.694C254.824 310.718 253.288 312.222 252.136 314.206C251.048 316.19 250.504 318.462 250.504 321.022C250.504 323.454 251.048 325.662 252.136 327.646C253.288 329.566 254.824 331.102 256.744 332.254C258.728 333.342 260.968 333.886 263.464 333.886ZM302.066 300.382C302.066 297.886 303.09 296.158 305.138 295.198C307.186 294.174 309.266 294.11 311.378 295.006C313.49 295.838 314.546 297.31 314.546 299.422V304.798C316.274 301.598 318.578 299.07 321.458 297.214C324.338 295.294 327.538 294.334 331.058 294.334C335.666 294.334 339.346 295.358 342.098 297.406C344.914 299.39 346.93 302.11 348.146 305.566C349.362 308.958 349.97 313.118 349.97 318.046V339.358C349.97 342.814 348.658 345.214 346.034 346.558C343.474 347.902 340.914 347.902 338.354 346.558C335.794 345.214 334.514 342.814 334.514 339.358V317.086C334.514 314.27 333.746 312.094 332.21 310.558C330.738 309.022 328.786 308.254 326.354 308.254C324.818 308.254 323.378 308.702 322.034 309.598C320.69 310.43 319.602 311.614 318.77 313.15C317.938 314.686 317.522 316.382 317.522 318.238V339.646C317.522 342.91 316.21 345.182 313.586 346.462C311.026 347.806 308.466 347.806 305.906 346.462C303.346 345.182 302.066 342.814 302.066 339.358V300.382ZM370.599 347.518C368.295 347.518 366.439 346.814 365.031 345.406C363.623 343.934 362.919 342.014 362.919 339.646V302.206C362.919 299.838 363.623 297.95 365.031 296.542C366.439 295.07 368.295 294.334 370.599 294.334H370.791C373.095 294.334 374.951 295.07 376.359 296.542C377.767 297.95 378.471 299.838 378.471 302.206V339.646C378.471 342.014 377.767 343.934 376.359 345.406C374.951 346.814 373.095 347.518 370.791 347.518H370.599ZM370.695 285.982C368.519 285.982 366.631 285.182 365.031 283.582C363.431 281.982 362.631 280.094 362.631 277.918C362.631 276.51 362.983 275.23 363.687 274.078C364.455 272.862 365.447 271.902 366.663 271.198C367.943 270.494 369.287 270.142 370.695 270.142C372.167 270.142 373.511 270.494 374.727 271.198C375.943 271.902 376.903 272.862 377.607 274.078C378.311 275.23 378.663 276.51 378.663 277.918C378.663 279.39 378.311 280.734 377.607 281.95C376.903 283.166 375.943 284.158 374.727 284.926C373.511 285.63 372.167 285.982 370.695 285.982ZM417.399 347.614C412.279 347.614 407.607 346.494 403.383 344.254C399.223 341.95 395.959 338.782 393.591 334.75C391.223 330.718 390.039 326.206 390.039 321.214C390.039 316.094 391.223 311.486 393.591 307.39C395.959 303.294 399.223 300.094 403.383 297.79C407.543 295.486 412.215 294.334 417.399 294.334C422.199 294.334 426.679 295.422 430.839 297.598C434.999 299.71 438.039 302.526 439.959 306.046C441.239 308.414 441.463 310.526 440.631 312.382C439.799 314.238 438.359 315.39 436.311 315.838C434.327 316.286 432.503 315.902 430.839 314.686C428.919 312.574 426.807 310.974 424.503 309.886C422.391 308.862 419.959 308.35 417.207 308.35C414.903 308.35 412.791 308.894 410.871 309.982C409.015 311.006 407.575 312.51 406.551 314.494C405.527 316.414 405.015 318.59 405.015 321.022C405.015 323.326 405.559 325.406 406.647 327.262C407.735 329.118 409.207 330.558 411.063 331.582C412.983 332.606 415.095 333.118 417.399 333.118C419.063 333.118 420.503 332.926 421.719 332.542C422.999 332.094 424.215 331.486 425.367 330.718C426.327 330.078 427.287 329.406 428.247 328.702C429.207 327.934 430.263 327.102 431.415 326.206C433.271 324.99 435.223 324.702 437.271 325.342C439.319 325.982 440.695 327.326 441.399 329.374C442.167 331.358 441.783 333.63 440.247 336.19C438.391 339.71 435.319 342.494 431.031 344.542C426.807 346.59 422.263 347.614 417.399 347.614ZM454.254 282.91C454.254 279.646 455.534 277.374 458.094 276.094C460.718 274.814 463.31 274.814 465.87 276.094C468.43 277.374 469.71 279.646 469.71 282.91V339.55C469.71 342.814 468.398 345.118 465.774 346.462C463.214 347.742 460.654 347.742 458.094 346.462C455.534 345.118 454.254 342.814 454.254 339.55V282.91ZM482.195 321.022C482.195 315.838 483.379 311.23 485.747 307.198C488.115 303.166 491.347 300.03 495.443 297.79C499.539 295.486 504.147 294.334 509.267 294.334C514.259 294.334 518.803 295.358 522.899 297.406C526.995 299.454 530.227 302.206 532.595 305.662C534.963 309.118 536.179 312.83 536.243 316.798C536.307 318.59 535.923 320.222 535.091 321.694C534.323 323.166 533.235 324.318 531.827 325.15C530.419 325.982 528.915 326.398 527.315 326.398H521.075V324.478C521.203 321.534 521.139 319.23 520.883 317.566C520.691 315.838 520.051 313.982 518.963 311.998C517.875 310.334 516.531 309.086 514.931 308.254C513.331 307.358 511.475 306.91 509.363 306.91C507.187 306.91 505.267 307.39 503.603 308.35C501.939 309.31 500.595 310.59 499.571 312.19C498.931 313.342 498.451 314.59 498.131 315.934C497.875 317.278 497.747 318.91 497.747 320.83C497.747 323.198 497.907 325.054 498.227 326.398C498.547 327.742 499.123 329.086 499.955 330.43C500.851 331.71 502.067 332.83 503.603 333.79C505.203 334.686 507.155 335.198 509.459 335.326C511.699 335.454 513.587 335.262 515.123 334.75C516.723 334.174 518.387 333.31 520.115 332.158C520.371 331.966 520.627 331.774 520.883 331.582C523.635 329.79 526.131 329.31 528.371 330.142C530.611 330.974 531.763 332.638 531.827 335.134C531.955 337.566 530.643 339.902 527.891 342.142C525.651 343.934 522.899 345.31 519.635 346.27C516.435 347.23 512.979 347.678 509.267 347.614C504.083 347.55 499.411 346.398 495.251 344.158C491.155 341.918 487.955 338.782 485.651 334.75C483.347 330.718 482.195 326.142 482.195 321.022ZM525.107 315.838V326.398H483.443V315.838H525.107ZM564.123 347.614C561.051 347.55 558.299 347.07 555.867 346.174C553.499 345.214 551.611 344.158 550.203 343.006C548.795 341.854 547.771 340.83 547.131 339.934C545.723 338.078 545.083 336.254 545.211 334.462C545.403 332.606 546.203 331.134 547.611 330.046C549.019 328.894 550.683 328.446 552.603 328.702C554.523 328.894 556.347 329.79 558.075 331.39C558.843 332.094 559.867 332.798 561.147 333.502C562.427 334.206 563.547 334.59 564.507 334.654C566.043 334.718 567.163 334.462 567.867 333.886C568.635 333.246 569.019 332.414 569.019 331.39C569.019 330.302 568.539 329.47 567.579 328.894C566.683 328.318 565.243 327.71 563.259 327.07L562.011 326.686C557.531 325.214 554.075 323.582 551.643 321.79C549.275 319.998 547.675 318.11 546.843 316.126C546.011 314.142 545.627 311.838 545.691 309.214C545.691 306.398 546.491 303.87 548.091 301.63C549.691 299.326 551.899 297.534 554.715 296.254C557.595 294.974 560.827 294.334 564.411 294.334C568.059 294.334 571.323 295.038 574.203 296.446C577.147 297.854 579.259 299.71 580.539 302.014C581.371 303.358 581.723 304.862 581.595 306.526C581.467 308.19 580.731 309.502 579.387 310.462C577.851 311.486 576.155 311.934 574.299 311.806C572.507 311.614 570.843 310.75 569.307 309.214C568.923 308.83 568.507 308.446 568.059 308.062C567.547 307.55 566.939 307.166 566.235 306.91C565.531 306.654 564.827 306.526 564.123 306.526C562.971 306.526 562.011 306.846 561.243 307.486C560.475 308.126 560.091 308.99 560.091 310.078C560.091 310.782 560.347 311.422 560.859 311.998C561.435 312.574 562.267 313.15 563.355 313.726C564.443 314.238 565.883 314.782 567.675 315.358C571.387 316.51 574.395 317.854 576.699 319.39C579.003 320.862 580.699 322.654 581.787 324.766C582.939 326.814 583.515 329.246 583.515 332.062C583.515 334.878 582.747 337.502 581.211 339.934C579.675 342.302 577.435 344.19 574.491 345.598C571.547 347.006 568.091 347.678 564.123 347.614Z" fill="#9A84C2"/>
</svg>
